<svg width="46" height="46" viewBox="0 0 46 46" fill="none" xmlns="http://www.w3.org/2000/svg">
<path d="M40.25 30.6667V15.3333C40.2493 14.6611 40.0719 14.0009 39.7354 13.4189C39.399 12.8369 38.9155 12.3536 38.3333 12.0175L24.9167 4.35085C24.3339 4.0144 23.6729 3.83728 23 3.83728C22.3271 3.83728 21.6661 4.0144 21.0833 4.35085L7.66667 12.0175C7.0845 12.3536 6.60096 12.8369 6.26455 13.4189C5.92814 14.0009 5.75069 14.6611 5.75 15.3333V30.6667C5.75069 31.3389 5.92814 31.9991 6.26455 32.5811C6.60096 33.1631 7.0845 33.6464 7.66667 33.9825L21.0833 41.6492C21.6661 41.9856 22.3271 42.1628 23 42.1628C23.6729 42.1628 24.3339 41.9856 24.9167 41.6492L38.3333 33.9825C38.9155 33.6464 39.399 33.1631 39.7354 32.5811C40.0719 31.9991 40.2493 31.3389 40.25 30.6667Z" stroke="#FAFAFA" stroke-width="2" stroke-linecap="round" stroke-linejoin="round"/>
<path d="M14.375 8.06915L23 13.0525L31.625 8.06915" stroke="#FAFAFA" stroke-width="2" stroke-linecap="round" stroke-linejoin="round"/>
<path d="M14.375 37.9308V27.9833L5.75 23" stroke="#FAFAFA" stroke-width="2" stroke-linecap="round" stroke-linejoin="round"/>
<path d="M40.25 23L31.625 27.9833V37.9308" stroke="#FAFAFA" stroke-width="2" stroke-linecap="round" stroke-linejoin="round"/>
<path d="M6.26758 13.34L23.0001 23.0192L39.7326 13.34" stroke="#FAFAFA" stroke-width="2" stroke-linecap="round" stroke-linejoin="round"/>
<path d="M23 42.32V23" stroke="#FAFAFA" stroke-width="2" stroke-linecap="round" stroke-linejoin="round"/>
</svg>
