<svg width="46" height="46" viewBox="0 0 46 46" fill="none" xmlns="http://www.w3.org/2000/svg">
<path d="M32.5834 40.25V36.4167C32.5834 34.3833 31.7757 32.4333 30.3379 30.9955C28.9001 29.5577 26.9501 28.75 24.9167 28.75H9.58341C7.55009 28.75 5.60004 29.5577 4.16226 30.9955C2.72448 32.4333 1.91675 34.3833 1.91675 36.4167V40.25" stroke="#FAFAFA" stroke-width="2" stroke-linecap="round" stroke-linejoin="round"/>
<path d="M17.2499 21.0833C21.4841 21.0833 24.9166 17.6508 24.9166 13.4167C24.9166 9.18248 21.4841 5.75 17.2499 5.75C13.0157 5.75 9.58325 9.18248 9.58325 13.4167C9.58325 17.6508 13.0157 21.0833 17.2499 21.0833Z" stroke="#FAFAFA" stroke-width="2" stroke-linecap="round" stroke-linejoin="round"/>
<path d="M44.0833 40.25V36.4166C44.082 34.718 43.5166 33.0678 42.4759 31.7252C41.4351 30.3827 39.978 29.4238 38.3333 28.9991" stroke="#FAFAFA" stroke-width="2" stroke-linecap="round" stroke-linejoin="round"/>
<path d="M30.6667 5.99915C32.3159 6.42139 33.7776 7.38049 34.8214 8.72524C35.8652 10.07 36.4318 11.7239 36.4318 13.4262C36.4318 15.1286 35.8652 16.7825 34.8214 18.1272C33.7776 19.472 32.3159 20.4311 30.6667 20.8533" stroke="#FAFAFA" stroke-width="2" stroke-linecap="round" stroke-linejoin="round"/>
</svg>
